<svg width="10" height="11" viewBox="0 0 10 11" fill="none" xmlns="http://www.w3.org/2000/svg">
<g id="building-store">
<path id="Vector" d="M1.25 9.25H8.75M1.25 3.41667V3.83333C1.25 4.16485 1.3817 4.4828 1.61612 4.71722C1.85054 4.95164 2.16848 5.08333 2.5 5.08333C2.83152 5.08333 3.14946 4.95164 3.38388 4.71722C3.6183 4.4828 3.75 4.16485 3.75 3.83333M1.25 3.41667H8.75M1.25 3.41667L2.08333 1.75H7.91667L8.75 3.41667M3.75 3.83333V3.41667M3.75 3.83333C3.75 4.16485 3.8817 4.4828 4.11612 4.71722C4.35054 4.95164 4.66848 5.08333 5 5.08333C5.33152 5.08333 5.64946 4.95164 5.88388 4.71722C6.1183 4.4828 6.25 4.16485 6.25 3.83333M6.25 3.83333V3.41667M6.25 3.83333C6.25 4.16485 6.3817 4.4828 6.61612 4.71722C6.85054 4.95164 7.16848 5.08333 7.5 5.08333C7.83152 5.08333 8.14946 4.95164 8.38388 4.71722C8.6183 4.4828 8.75 4.16485 8.75 3.83333V3.41667M2.08333 9.25V5.02083M7.91667 9.25V5.02083M3.75 9.25V7.58333C3.75 7.36232 3.8378 7.15036 3.99408 6.99408C4.15036 6.8378 4.36232 6.75 4.58333 6.75H5.41667C5.63768 6.75 5.84964 6.8378 6.00592 6.99408C6.1622 7.15036 6.25 7.36232 6.25 7.58333V9.25" stroke="#495057" stroke-width="0.8" stroke-linecap="round" stroke-linejoin="round"/>
</g>
</svg>
