<svg width="10" height="11" viewBox="0 0 10 11" fill="none" xmlns="http://www.w3.org/2000/svg">
<g id="ticket">
<path id="Vector" d="M6.25 2.58334V3.41668M6.25 5.08334V5.91668M6.25 7.58334V8.41668M2.08333 2.58334H7.91667C8.13768 2.58334 8.34964 2.67114 8.50592 2.82742C8.6622 2.9837 8.75 3.19566 8.75 3.41668V4.66668C8.52899 4.66668 8.31702 4.75447 8.16074 4.91075C8.00446 5.06703 7.91667 5.279 7.91667 5.50001C7.91667 5.72102 8.00446 5.93299 8.16074 6.08927C8.31702 6.24555 8.52899 6.33334 8.75 6.33334V7.58334C8.75 7.80436 8.6622 8.01632 8.50592 8.1726C8.34964 8.32888 8.13768 8.41668 7.91667 8.41668H2.08333C1.86232 8.41668 1.65036 8.32888 1.49408 8.1726C1.3378 8.01632 1.25 7.80436 1.25 7.58334V6.33334C1.47101 6.33334 1.68298 6.24555 1.83926 6.08927C1.99554 5.93299 2.08333 5.72102 2.08333 5.50001C2.08333 5.279 1.99554 5.06703 1.83926 4.91075C1.68298 4.75447 1.47101 4.66668 1.25 4.66668V3.41668C1.25 3.19566 1.3378 2.9837 1.49408 2.82742C1.65036 2.67114 1.86232 2.58334 2.08333 2.58334Z" stroke="#495057" stroke-width="0.8" stroke-linecap="round" stroke-linejoin="round"/>
</g>
</svg>
